<?xml version="1.0" standalone="no"?>
<!DOCTYPE svg PUBLIC "-//W3C//DTD SVG 20010904//EN"
 "http://www.w3.org/TR/2001/REC-SVG-20010904/DTD/svg10.dtd">
<svg version="1.0" xmlns="http://www.w3.org/2000/svg"
 width="134.000000pt" height="34.000000pt" viewBox="0 0 134.000000 34.000000"
 preserveAspectRatio="xMidYMid meet">

<g transform="translate(0.000000,34.000000) scale(0.100000,-0.100000)"
fill="#000000" stroke="none">
<path d="M208 273 l104 -4 -6 -26 c-4 -14 -10 -38 -13 -54 -5 -27 -8 -29 -57
-29 -29 0 -58 6 -64 12 -10 10 -17 10 -32 1 -15 -10 -19 -9 -23 5 -3 12 -5 11
-6 -5 -1 -14 5 -23 14 -24 8 0 67 0 130 0 63 0 122 0 130 0 8 1 19 10 25 21 9
17 6 27 -17 55 -15 18 -36 34 -45 34 -9 1 -20 6 -23 11 -4 6 -50 9 -113 8
l-107 -2 103 -3z m172 -54 c16 -16 27 -36 23 -45 -6 -16 -23 -19 -23 -4 0 14
-26 13 -50 -2 -28 -18 -33 -6 -19 41 15 49 31 52 69 10z m-210 -59 c0 -5 -7
-10 -15 -10 -8 0 -15 5 -15 10 0 6 7 10 15 10 8 0 15 -4 15 -10z m200 0 c0 -5
-7 -10 -16 -10 -8 0 -12 5 -9 10 3 6 10 10 16 10 5 0 9 -4 9 -10z"/>
<path d="M475 215 l0 -65 58 0 c31 0 57 4 57 10 0 6 -16 10 -35 10 l-35 0 0
55 c0 50 -2 55 -22 55 -22 0 -23 -4 -23 -65z"/>
<path d="M750 215 c0 -51 3 -65 15 -65 12 0 15 14 15 65 0 51 -3 65 -15 65
-12 0 -15 -14 -15 -65z"/>
<path d="M810 215 l0 -66 56 3 c62 3 84 20 69 54 -4 11 -7 25 -6 32 4 27 -21
42 -70 42 l-49 0 0 -65z m78 33 c-7 -19 -38 -22 -38 -4 0 10 9 16 21 16 12 0
19 -5 17 -12z m7 -58 c0 -8 -10 -16 -22 -18 -18 -3 -23 2 -23 18 0 16 5 21 23
18 12 -2 22 -10 22 -18z"/>
<path d="M960 215 c0 -51 3 -65 15 -65 12 0 15 14 15 65 0 51 -3 65 -15 65
-12 0 -15 -14 -15 -65z"/>
<path d="M1230 254 c0 -15 -4 -23 -11 -19 -17 11 -58 -4 -69 -25 -20 -37 3
-60 60 -60 l50 0 0 65 c0 51 -3 65 -15 65 -9 0 -15 -10 -15 -26z m-2 -59 c5
-22 -18 -37 -35 -23 -17 13 -17 35 0 41 19 8 32 2 35 -18z"/>
<path d="M88 253 c23 -2 59 -2 80 0 20 2 1 4 -43 4 -44 0 -61 -2 -37 -4z"/>
<path d="M100 230 c0 -6 27 -10 60 -10 33 0 60 4 60 10 0 6 -27 10 -60 10 -33
0 -60 -4 -60 -10z"/>
<path d="M629 221 c-21 -16 -22 -22 -11 -45 10 -23 18 -26 58 -26 32 0 44 4
41 13 -2 7 -16 11 -35 9 -18 -2 -32 1 -32 7 0 6 18 11 40 11 47 0 56 24 14 40
-36 14 -49 13 -75 -9z m56 -11 c3 -6 -4 -10 -17 -10 -18 0 -20 2 -8 10 19 12
18 12 25 0z"/>
<path d="M1029 221 c-21 -16 -22 -22 -11 -45 10 -23 18 -26 58 -26 32 0 44 4
41 13 -2 7 -16 11 -35 9 -18 -2 -32 1 -32 7 0 6 18 11 40 11 47 0 56 24 14 40
-36 14 -49 13 -75 -9z m56 -11 c3 -6 -4 -10 -17 -10 -18 0 -20 2 -8 10 19 12
18 12 25 0z"/>
<path d="M103 203 c15 -2 39 -2 55 0 15 2 2 4 -28 4 -30 0 -43 -2 -27 -4z"/>
</g>
</svg>
