<?xml version="1.0" standalone="no"?>
<!DOCTYPE svg PUBLIC "-//W3C//DTD SVG 20010904//EN"
 "http://www.w3.org/TR/2001/REC-SVG-20010904/DTD/svg10.dtd">
<svg version="1.0" xmlns="http://www.w3.org/2000/svg"
 width="134.000000pt" height="34.000000pt" viewBox="0 0 134.000000 34.000000"
 preserveAspectRatio="xMidYMid meet">

<g transform="translate(0.000000,34.000000) scale(0.100000,-0.100000)"
fill="#000000" stroke="none">
<path d="M285 262 c-36 -17 -45 -17 -87 -4 -67 19 -93 12 -51 -13 18 -11 33
-22 33 -25 0 -3 -16 -12 -35 -19 -25 -9 -40 -9 -54 -2 -35 19 -41 12 -24 -24
21 -45 40 -45 147 0 15 7 17 4 13 -11 -3 -10 -9 -37 -13 -59 -7 -40 -7 -40 14
-22 11 10 30 42 42 71 18 46 27 55 76 79 30 15 52 32 49 37 -10 16 -66 11
-110 -8z"/>
<path d="M480 181 l0 -91 55 0 c42 0 55 3 55 15 0 10 -11 15 -35 15 l-34 0 -3
72 c-2 60 -6 73 -20 76 -16 3 -18 -6 -18 -87z"/>
<path d="M763 263 c-9 -3 -13 -31 -13 -89 0 -68 3 -84 15 -84 12 0 15 17 15
90 0 50 -1 90 -2 89 -2 0 -9 -3 -15 -6z"/>
<path d="M810 180 l0 -90 43 0 c23 0 53 7 65 16 22 15 30 58 12 69 -5 3 -7 19
-4 34 8 36 -24 61 -78 61 l-38 0 0 -90z m78 37 c2 -12 -3 -17 -17 -17 -15 0
-21 6 -21 21 0 25 33 22 38 -4z m7 -72 c0 -13 -8 -21 -22 -23 -19 -3 -23 1
-23 23 0 22 4 26 23 23 14 -2 22 -10 22 -23z"/>
<path d="M960 178 c0 -72 3 -88 15 -88 12 0 15 16 15 88 0 72 -3 89 -15 89
-12 0 -15 -17 -15 -89z"/>
<path d="M1230 231 c0 -24 -3 -28 -22 -24 -29 5 -55 -15 -63 -49 -10 -39 22
-67 74 -66 l41 0 0 84 c0 68 -3 84 -15 84 -10 0 -15 -10 -15 -29z m-2 -74 c5
-27 -17 -50 -34 -36 -15 12 -19 41 -7 53 12 12 38 1 41 -17z"/>
<path d="M630 190 c-26 -26 -25 -55 1 -81 24 -24 84 -24 84 1 0 10 -8 14 -27
12 -14 -2 -29 2 -33 7 -4 7 8 11 34 11 34 0 41 3 41 19 0 22 -35 51 -62 51
-10 0 -27 -9 -38 -20z m60 -20 c0 -5 -9 -10 -21 -10 -11 0 -17 5 -14 10 3 6
13 10 21 10 8 0 14 -4 14 -10z"/>
<path d="M1030 190 c-26 -26 -25 -55 1 -81 24 -24 84 -24 84 1 0 10 -8 14 -27
12 -14 -2 -29 2 -33 7 -4 7 8 11 34 11 34 0 41 3 41 19 0 22 -35 51 -62 51
-10 0 -27 -9 -38 -20z m60 -20 c0 -5 -9 -10 -21 -10 -11 0 -17 5 -14 10 3 6
13 10 21 10 8 0 14 -4 14 -10z"/>
</g>
</svg>
