<?xml version="1.0" standalone="no"?>
<!DOCTYPE svg PUBLIC "-//W3C//DTD SVG 20010904//EN"
 "http://www.w3.org/TR/2001/REC-SVG-20010904/DTD/svg10.dtd">
<svg version="1.0" xmlns="http://www.w3.org/2000/svg"
 width="134.000000pt" height="34.000000pt" viewBox="0 0 134.000000 34.000000"
 preserveAspectRatio="xMidYMid meet">

<g transform="translate(0.000000,34.000000) scale(0.100000,-0.100000)"
fill="#000000" stroke="none">
<path d="M80 250 c0 -6 47 -10 121 -10 110 0 120 -2 115 -17 -3 -10 -10 -46
-17 -80 l-12 -63 -63 0 c-35 0 -64 4 -64 9 0 17 -29 20 -44 6 -20 -21 -28 -19
-21 5 3 11 2 20 -3 20 -5 0 -12 -11 -14 -25 -4 -21 0 -28 29 -42 26 -12 37
-13 46 -4 14 14 171 15 199 0 14 -8 23 -8 31 0 6 6 19 11 28 11 9 0 20 7 23
16 10 25 7 64 -5 64 -5 0 -19 20 -30 45 -15 35 -25 45 -43 45 -13 0 -26 7 -30
15 -4 12 -28 15 -126 15 -73 0 -120 -4 -120 -10z m309 -75 c12 -25 26 -45 32
-45 6 0 8 -9 3 -22 -9 -33 -12 -33 -34 -13 -19 17 -21 17 -38 2 -23 -21 -56
-23 -49 -3 3 7 9 35 12 62 9 60 11 64 34 64 12 0 26 -16 40 -45z m-241 -102
c-4 -22 -22 -20 -26 1 -2 10 3 16 13 16 10 0 15 -7 13 -17z m238 6 c10 -17
-13 -36 -27 -22 -12 12 -4 33 11 33 5 0 12 -5 16 -11z"/>
<path d="M480 161 l0 -101 55 0 c42 0 55 3 55 15 0 10 -11 15 -35 15 l-34 0
-3 82 c-3 70 -6 83 -20 86 -16 3 -18 -7 -18 -97z"/>
<path d="M763 253 c-9 -3 -13 -33 -13 -99 0 -77 3 -94 15 -94 12 0 15 18 15
100 0 55 -1 100 -2 99 -2 0 -9 -3 -15 -6z"/>
<path d="M810 160 l0 -100 49 0 c40 0 53 4 65 22 18 25 21 64 7 73 -5 3 -7 20
-4 39 4 27 1 36 -18 50 -13 9 -40 16 -61 16 l-38 0 0 -100z m78 43 c-5 -26
-38 -29 -38 -4 0 15 6 21 21 21 14 0 19 -5 17 -17z m7 -83 c0 -18 -6 -26 -22
-28 -20 -3 -23 1 -23 28 0 27 3 31 23 28 16 -2 22 -10 22 -28z"/>
<path d="M960 158 c0 -80 3 -98 15 -98 12 0 15 18 15 98 0 81 -3 99 -15 99
-12 0 -15 -18 -15 -99z"/>
<path d="M1230 216 c0 -29 -3 -33 -19 -29 -50 13 -88 -55 -57 -102 13 -20 25
-25 61 -25 l45 0 0 95 c0 78 -3 95 -15 95 -10 0 -15 -10 -15 -34z m-2 -84 c5
-32 -16 -56 -34 -41 -15 12 -19 51 -7 63 14 13 38 0 41 -22z"/>
<path d="M3 218 c-2 -5 40 -8 93 -8 54 0 95 3 91 6 -8 9 -178 10 -184 2z"/>
<path d="M60 183 c0 -9 139 -8 147 1 4 3 -28 6 -70 6 -43 0 -77 -3 -77 -7z"/>
<path d="M630 170 c-24 -24 -26 -57 -4 -88 12 -18 24 -22 52 -20 25 2 37 8 37
18 0 10 -8 14 -27 12 -14 -2 -29 2 -33 7 -4 7 8 11 34 11 36 0 41 3 41 23 0
51 -63 74 -100 37z m60 -20 c0 -5 -9 -10 -21 -10 -11 0 -17 5 -14 10 3 6 13
10 21 10 8 0 14 -4 14 -10z"/>
<path d="M1030 170 c-24 -24 -26 -57 -4 -88 12 -18 24 -22 52 -20 46 4 52 32
8 33 -16 0 -31 5 -33 10 -2 7 12 9 37 7 37 -4 40 -2 40 20 0 52 -62 76 -100
38z m60 -20 c0 -5 -9 -10 -21 -10 -11 0 -17 5 -14 10 3 6 13 10 21 10 8 0 14
-4 14 -10z"/>
<path d="M68 143 c17 -2 47 -2 65 0 17 2 3 4 -33 4 -36 0 -50 -2 -32 -4z"/>
</g>
</svg>
